HIERARCHY
ROOT Hips
{
  OFFSET 0 89.5177 0.535
  CHANNELS 6 Xposition Yposition Zposition Zrotation Xrotation Yrotation
  JOINT Spine
  {
    OFFSET 12.0259 -0.162855 1.69034e-005
    CHANNELS 3 Zrotation Xrotation Yrotation
    JOINT Spine1
    {
      OFFSET 15.3169 -0.0121922 0
      CHANNELS 3 Zrotation Xrotation Yrotation
      JOINT Spine2
      {
        OFFSET 15.3176 -0.0121908 0
        CHANNELS 3 Zrotation Xrotation Yrotation
        JOINT Neck
        {
          OFFSET 19.9142 1.56338 0
          CHANNELS 3 Zrotation Xrotation Yrotation
          JOINT Head
          {
            OFFSET 6.92651 0 0
            CHANNELS 3 Zrotation Xrotation Yrotation
            End Site
            {
              OFFSET 20.7666 0 0
            }
          }
          JOINT LeftShoulder
          {
            OFFSET -6.20654 0.708824 7.28219
            CHANNELS 3 Zrotation Xrotation Yrotation
            JOINT LeftArm
            {
              OFFSET 14.108 0 -1.52588e-005
              CHANNELS 3 Zrotation Xrotation Yrotation
              JOINT LeftForeArm
              {
                OFFSET 28.5802 0 0
                CHANNELS 3 Zrotation Xrotation Yrotation
                JOINT LeftHand
                {
                  OFFSET 27.092 0 0
                  CHANNELS 3 Zrotation Xrotation Yrotation
                  End Site
                  {
                    OFFSET 9.55928 -0.186424 0.145352
                  }
                }
              }
            }
          }
          JOINT RightShoulder
          {
            OFFSET -6.20654 0.708866 -7.28218
            CHANNELS 3 Zrotation Xrotation Yrotation
            JOINT RightArm
            {
              OFFSET 14.108 0 1.52588e-005
              CHANNELS 3 Zrotation Xrotation Yrotation
              JOINT RightForeArm
              {
                OFFSET 28.5802 0 0
                CHANNELS 3 Zrotation Xrotation Yrotation
                JOINT RightHand
                {
                  OFFSET 27.092 0 0
                  CHANNELS 3 Zrotation Xrotation Yrotation
                  End Site
                  {
                    OFFSET 9.55929 -0.186417 -0.145354
                  }
                }
              }
            }
          }
        }
      }
    }
  }
  JOINT LeftUpLeg
  {
    OFFSET 0.005 -0.535 8.837
    CHANNELS 3 Zrotation Xrotation Yrotation
    JOINT LeftLeg
    {
      OFFSET 39.9035 0 0
      CHANNELS 3 Zrotation Xrotation Yrotation
      JOINT LeftFoot
      {
        OFFSET 39.6689 0 0
        CHANNELS 3 Zrotation Xrotation Yrotation
        JOINT LeftToe
        {
          OFFSET 10.1624 13.6296 0
          CHANNELS 3 Zrotation Xrotation Yrotation
          End Site
          {
            OFFSET 8.38147 0 0
          }
        }
      }
    }
  }
  JOINT RightUpLeg
  {
    OFFSET 0.005 -0.535 -8.837
    CHANNELS 3 Zrotation Xrotation Yrotation
    JOINT RightLeg
    {
      OFFSET 39.9035 0 0
      CHANNELS 3 Zrotation Xrotation Yrotation
      JOINT RightFoot
      {
        OFFSET 39.6689 0 0
        CHANNELS 3 Zrotation Xrotation Yrotation
        JOINT RightToe
        {
          OFFSET 10.1624 13.6296 0
          CHANNELS 3 Zrotation Xrotation Yrotation
          End Site
          {
            OFFSET 8.38147 0 0
          }
        }
      }
    }
  }
}
MOTION
Frames:	12
Frame Time:	0.0333333
140.288 67.0306 -91.3642 -121.652 18.2349 -170.697 4.49492 0.902286 -0.627736 9.00104 1.75302 -1.32439 9.00104 1.75302 -1.3244 -8.30867e-012 -9.0191e-006 -5.27751e-005 -29.5949 -3.73758 -8.68982 -175.377 -21.5929 -77.6085 -49.1641 -20.3879 28.6966 -99.8557 -3.18055e-015 6.36111e-015 -86.4566 -64.2859 -97.2549 -177.814 10.9928 78.6802 -62.6334 6.71286 -22.0404 -105.298 -1.59028e-015 6.36111e-015 -94.4301 49.0443 104.751 -90.6458 -5.57143 -160.537 -70.5141 2.38542e-015 1.59028e-015 13.8541 19.0431 -23.6695 90 -3.18055e-015 -6.36111e-015 -49.3855 2.50461 140.143 -51.3038 -9.54167e-015 -7.95139e-015 25.4421 0.0719291 8.769 90 -3.18055e-015 -6.36111e-015 
141.655 67.4833 -91.5016 -121.567 15.7597 -171.7 4.82276 1.5824 -1.10884 9.68048 3.0661 -2.34805 9.68048 3.0661 -2.34806 -8.30042e-012 -9.0191e-006 -5.27751e-005 -29.3799 -11.406 -7.16109 -175.059 -22.202 -77.1133 -59.7391 -31.3703 22.9432 -76.0438 -6.36111e-015 6.36111e-015 -86.5952 -70.2705 -95.6854 -178.194 10.9838 80.6033 -75.9413 20.0163 -17.683 -79.9458 0 -1.27222e-014 -93.9577 55.7306 102.405 -91.1744 -3.85277 -161.672 -70.5769 1.19271e-015 -0 14.2737 18.423 -21.3006 90 -1.59028e-015 -0 -48.7185 0.314722 139.724 -51.2419 -3.18056e-015 4.77083e-015 25.9345 0.927922 8.15866 90 6.36111e-015 6.36111e-015 
143.017 67.7631 -91.5705 -121.278 14.1596 -172.706 5.16727 2.06577 -1.46621 10.3953 3.99074 -3.11548 10.3953 3.99074 -3.11549 -8.30018e-012 -9.0191e-006 -5.27751e-005 -28.8473 -16.3825 -5.75095 -175.518 -21.1144 -77.7244 -71.3506 -35.8943 15.1389 -50.3671 6.36111e-015 3.18055e-015 -73.0202 -74.1125 -80.2596 -178.772 8.37878 81.6303 -93.3774 28.2264 -8.53166 -45.6948 3.18055e-015 3.18055e-015 -86.8617 64.0464 92.5293 -91.2359 -2.8121 -162.093 -71.1496 -2.85753e-016 -1.59028e-015 15.0654 18.114 -20.0607 90 1.59028e-015 -6.36111e-015 -48.2021 -1.51488 139.639 -51.2054 -3.18056e-015 -0 26.0659 1.65136 6.93827 90 -3.18055e-015 -0 
144.293 67.9322 -91.535 -122.209 12.7083 -173.978 5.41502 2.56006 -1.67206 10.9179 4.94999 -3.58365 10.9179 4.94999 -3.58366 -8.31228e-012 -9.0191e-006 -5.27751e-005 -30.9634 -20.2608 -4.54874 -177.163 -19.6506 -81.6174 -73.8516 -39.7644 15.1461 -38.9049 0 -1.39149e-015 -66.3481 -75.0504 -73.0102 -179.481 5.40789 84.5131 -106.343 36.619 -0.190828 -21.5146 1.27222e-014 9.54166e-015 -73.7691 67.8839 77.6578 -92.6912 -2.60496 -162.219 -72.0839 0 -3.18055e-015 15.8281 18.4987 -20.1331 90 3.18055e-015 -0 -49.0485 -3.78188 139.745 -50.383 6.36111e-015 -1.59028e-015 26.3768 0.713138 8.15753 90 0 3.18055e-015 
145.625 68.2578 -91.369 -124.242 10.1994 -175.219 5.41116 2.86914 -1.77202 10.928 5.55709 -3.81403 10.928 5.55709 -3.81404 -8.31146e-012 -9.0191e-006 -5.27751e-005 -33.9913 -23.8686 -2.60359 -177.465 -19.056 -82.2774 -75.4551 -41.7493 15.4111 -35.2749 -3.18055e-015 -7.95139e-016 -59.6354 -76.0262 -65.7518 -179.452 5.23332 84.0133 -113.096 39.304 5.10702 -14.7032 -3.18055e-015 -6.36111e-015 -69.0667 67.5625 72.5603 -94.923 -2.41517 -163.318 -72.3938 1.59028e-015 -1.59028e-015 16.4739 18.9031 -20.1898 90 -1.59028e-015 -3.18055e-015 -49.9632 -6.2985 139.69 -48.8503 0 -0 26.2024 1.34628 6.86674 90 0 -3.18055e-015 
146.899 68.4968 -91.046 -125.858 7.38094 -177.07 5.29956 2.88165 -1.59808 10.6969 5.60236 -3.46228 10.6969 5.60236 -3.46229 -8.30818e-012 -9.0191e-006 -5.27751e-005 -35.0746 -26.2504 -0.215684 -177.258 -18.0245 -81.2009 -73.8477 -43.4525 16.7819 -35.5516 -1.27222e-014 3.18055e-015 -53.1445 -76.6116 -58.8256 -179.316 5.54927 82.9642 -112.421 38.1236 5.40809 -17.838 -3.18055e-015 -3.18055e-015 -68.3363 68.6308 71.7318 -96.8477 -2.52288 -164.615 -72.7217 2.38542e-015 -7.95139e-016 17.2609 19.4602 -20.2586 90 1.59028e-015 6.36111e-015 -49.2679 -8.61177 140.194 -47.1559 3.18056e-015 -4.77083e-015 26.4948 2.67156 4.56822 90 -9.54166e-015 9.54166e-015 
148.074 68.6221 -90.5542 -126.734 5.42935 -179.046 5.27676 2.75486 -1.48883 10.641 5.36036 -3.2305 10.641 5.36036 -3.23051 -8.30539e-012 -9.0191e-006 -5.27751e-005 -33.8234 -28.0963 2.64618 -177.3 -17.817 -81.2377 -73.0712 -44.7996 17.2451 -35.5546 -3.18055e-015 -0 -51.9947 -76.2061 -57.6669 -179.302 5.64997 82.9484 -111.081 37.0211 4.7845 -19.9433 -3.18055e-015 -0 -69.3093 69.1358 72.7599 -98.027 -2.8841 -164.946 -73.2681 0 1.59028e-015 18.1708 20.1238 -20.6787 90 0 1.59028e-015 -48.0625 -9.9877 141.214 -46.2315 -9.54167e-015 -1.59028e-015 26.8523 3.21684 4.03217 90 -3.18055e-015 -3.18055e-015 
149.27 68.8387 -89.9744 -127.302 4.12591 179.688 5.22851 2.58982 -1.50009 10.5384 5.03149 -3.23502 10.5384 5.03149 -3.23502 -8.30788e-012 -9.0191e-006 -5.27751e-005 -31.7684 -29.1392 4.84325 -177.455 -17.6943 -81.6794 -73.2609 -44.3537 16.9227 -34.8176 0 -1.59028e-015 -49.1898 -76.2524 -54.7036 -179.169 6.21624 82.3752 -109.777 36.3286 3.24438 -20.0899 -3.18055e-015 6.36111e-015 -69.374 69.4089 72.8169 -98.3876 -2.94151 -164.725 -73.5458 -1.59028e-015 1.59028e-015 19.2443 20.6774 -21.1619 90 -1.59028e-015 -4.77083e-015 -47.4909 -10.8759 141.94 -45.6513 -3.18056e-015 -3.18056e-015 26.8649 3.68516 3.40246 90 -3.18055e-015 9.54166e-015 
150.391 69.1333 -89.3557 -127.513 3.43399 178.624 5.19018 2.36746 -1.48737 10.4528 4.59013 -3.18692 10.4528 4.59013 -3.18693 -8.31006e-012 -9.0191e-006 -5.27751e-005 -30.216 -29.9917 6.34106 -177.624 -17.6903 -82.2237 -72.9356 -42.6609 17.1263 -34.4331 6.36111e-015 2.38542e-015 -44.912 -76.2202 -50.1982 -179.055 6.70102 81.9503 -107.077 37.1259 0.0726286 -20.5695 3.18055e-015 -0 -69.0549 70.2153 72.4334 -97.9244 -3.52034 -164.384 -73.6344 1.59028e-015 -7.95139e-016 20.6578 20.809 -21.0523 90 4.77083e-015 -3.18055e-015 -47.8113 -11.6197 142.671 -45.7363 -3.18056e-015 -7.95139e-015 26.2746 4.39198 2.21481 90 -9.54166e-015 6.36111e-015 
151.489 69.4715 -88.6131 -127.185 3.44197 177.713 5.17921 2.14937 -1.4711 10.4223 4.15677 -3.13349 10.4223 4.15677 -3.1335 -8.3046e-012 -9.0191e-006 -5.27751e-005 -28.9049 -30.1496 7.87917 -177.803 -17.5409 -82.7451 -71.6623 -39.022 18.139 -35.3126 3.18055e-015 5.56597e-015 -43.4554 -76.4752 -48.6395 -179.019 6.61938 81.5492 -101.582 37.3033 -5.07585 -22.6583 3.18055e-015 -0 -70.3131 70.9541 73.7328 -96.4948 -4.65643 -163.799 -73.6045 0 -0 22.1925 20.3705 -20.2519 90 -1.59028e-015 -0 -48.5237 -12.0436 143.544 -46.0376 3.18056e-015 -7.95139e-015 25.9218 4.26587 2.02205 90 3.18055e-015 3.18055e-015 
152.587 69.8357 -87.729 -126.698 3.95712 177.065 5.14895 1.97307 -1.47005 10.3555 3.80593 -3.11393 10.3555 3.80593 -3.11393 -8.30341e-012 -9.0191e-006 -5.27751e-005 -28.2459 -30.7622 9.4867 -177.902 -17.2719 -82.9654 -70.276 -34.5839 19.9478 -37.0958 6.36111e-015 2.98177e-015 -43.638 -76.741 -48.806 -178.894 6.71728 80.6287 -93.5514 36.4068 -11.887 -27.3923 3.18055e-015 -0 -73.6358 71.316 77.2445 -94.7008 -5.89637 -162.827 -73.2639 0 -0 22.5857 19.7043 -20.0285 90 1.59028e-015 1.59028e-015 -49.5941 -12.0031 144.415 -46.3683 0 6.36111e-015 25.4049 3.58329 2.59286 90 1.27222e-014 3.18055e-015 
153.684 70.1845 -86.6877 -125.909 4.61757 176.578 5.09304 1.74787 -1.39451 10.2338 3.36492 -2.94062 10.2338 3.36491 -2.94063 -8.31096e-012 -9.0191e-006 -5.27751e-005 -27.6036 -30.8289 10.5404 -177.91 -16.6768 -82.7533 -68.1455 -29.93 22.7126 -40.348 0 2.78299e-015 -47.5545 -76.9861 -52.8979 -178.698 6.94492 79.3572 -83.8208 33.9714 -19.6866 -34.4226 3.18055e-015 -0 -78.0633 71.5046 81.935 -92.5055 -6.91971 -161.565 -72.7764 3.18055e-015 -7.95139e-016 22.68 18.8895 -19.7904 90 -3.18055e-015 1.59028e-015 -50.5672 -11.3699 145.184 -46.9136 3.18056e-015 -6.36111e-015 24.4713 2.57035 3.74782 90 0 -3.18055e-015 
